%TF.GenerationSoftware,KiCad,Pcbnew,9.0.7*%
%TF.CreationDate,2026-02-02T16:04:06+02:00*%
%TF.ProjectId,gammapi-zero-audio,67616d6d-6170-4692-9d7a-65726f2d6175,rev?*%
%TF.SameCoordinates,Original*%
%TF.FileFunction,Copper,L1,Top*%
%TF.FilePolarity,Positive*%
%FSLAX46Y46*%
G04 Gerber Fmt 4.6, Leading zero omitted, Abs format (unit mm)*
G04 Created by KiCad (PCBNEW 9.0.7) date 2026-02-02 16:04:06*
%MOMM*%
%LPD*%
G01*
G04 APERTURE LIST*
G04 Aperture macros list*
%AMRoundRect*
0 Rectangle with rounded corners*
0 $1 Rounding radius*
0 $2 $3 $4 $5 $6 $7 $8 $9 X,Y pos of 4 corners*
0 Add a 4 corners polygon primitive as box body*
4,1,4,$2,$3,$4,$5,$6,$7,$8,$9,$2,$3,0*
0 Add four circle primitives for the rounded corners*
1,1,$1+$1,$2,$3*
1,1,$1+$1,$4,$5*
1,1,$1+$1,$6,$7*
1,1,$1+$1,$8,$9*
0 Add four rect primitives between the rounded corners*
20,1,$1+$1,$2,$3,$4,$5,0*
20,1,$1+$1,$4,$5,$6,$7,0*
20,1,$1+$1,$6,$7,$8,$9,0*
20,1,$1+$1,$8,$9,$2,$3,0*%
G04 Aperture macros list end*
%TA.AperFunction,SMDPad,CuDef*%
%ADD10R,2.500000X1.500000*%
%TD*%
%TA.AperFunction,SMDPad,CuDef*%
%ADD11R,1.500000X2.500000*%
%TD*%
%TA.AperFunction,SMDPad,CuDef*%
%ADD12R,2.000000X2.500000*%
%TD*%
%TA.AperFunction,SMDPad,CuDef*%
%ADD13RoundRect,0.225000X0.225000X0.250000X-0.225000X0.250000X-0.225000X-0.250000X0.225000X-0.250000X0*%
%TD*%
%TA.AperFunction,ViaPad*%
%ADD14C,1.200000*%
%TD*%
%TA.AperFunction,Conductor*%
%ADD15C,0.400000*%
%TD*%
G04 APERTURE END LIST*
D10*
%TO.P,J1,1*%
%TO.N,GND2*%
X176170000Y-101610000D03*
D11*
%TO.P,J1,2*%
%TO.N,Net-(C1-Pad1)*%
X178420000Y-97610000D03*
%TO.P,J1,3*%
%TO.N,Net-(C2-Pad1)*%
X178420000Y-105610000D03*
D12*
%TO.P,J1,4_1*%
%TO.N,Net-(J1-Pad4_1)*%
X182420000Y-97110000D03*
%TO.P,J1,4_2*%
X182420000Y-106110000D03*
%TD*%
D13*
%TO.P,C1,1*%
%TO.N,Net-(C1-Pad1)*%
X178255000Y-94870000D03*
%TO.P,C1,2*%
%TO.N,GND2*%
X176705000Y-94870000D03*
%TD*%
%TO.P,C2,1*%
%TO.N,Net-(C2-Pad1)*%
X178435000Y-108360000D03*
%TO.P,C2,2*%
%TO.N,GND2*%
X176885000Y-108360000D03*
%TD*%
D14*
%TO.N,Net-(C1-Pad1)*%
X171810000Y-100380000D03*
%TO.N,Net-(C2-Pad1)*%
X171846160Y-102898896D03*
%TO.N,GND2*%
X176220000Y-103470000D03*
X176220000Y-99740000D03*
%TD*%
D15*
%TO.N,Net-(J1-Pad4_1)*%
X182420000Y-106110000D02*
X181719000Y-105409000D01*
X181719000Y-105409000D02*
X181719000Y-97811000D01*
X181719000Y-97811000D02*
X182420000Y-97110000D01*
%TO.N,Net-(C1-Pad1)*%
X178255000Y-97445000D02*
X178420000Y-97610000D01*
X171810000Y-100370000D02*
X174580000Y-97600000D01*
X178410000Y-97600000D02*
X178420000Y-97610000D01*
X174580000Y-97600000D02*
X178410000Y-97600000D01*
X178255000Y-94870000D02*
X178255000Y-97445000D01*
X171810000Y-100380000D02*
X171810000Y-100370000D01*
%TO.N,Net-(C2-Pad1)*%
X171846160Y-102898896D02*
X174557264Y-105610000D01*
X174557264Y-105610000D02*
X178420000Y-105610000D01*
X178435000Y-105625000D02*
X178420000Y-105610000D01*
X178435000Y-108360000D02*
X178435000Y-105625000D01*
%TD*%
%TA.AperFunction,Conductor*%
%TO.N,GND2*%
G36*
X183526061Y-92111097D02*
G01*
X183683335Y-92126587D01*
X183707163Y-92131326D01*
X183852544Y-92175427D01*
X183874989Y-92184724D01*
X184008967Y-92256337D01*
X184029175Y-92269840D01*
X184146601Y-92366208D01*
X184163791Y-92383398D01*
X184260159Y-92500824D01*
X184273663Y-92521034D01*
X184345272Y-92655003D01*
X184354575Y-92677462D01*
X184398671Y-92822830D01*
X184403413Y-92846670D01*
X184418903Y-93003937D01*
X184419500Y-93016092D01*
X184419500Y-110203907D01*
X184418903Y-110216061D01*
X184418903Y-110216062D01*
X184403413Y-110373329D01*
X184398671Y-110397169D01*
X184354575Y-110542537D01*
X184345272Y-110564996D01*
X184273663Y-110698965D01*
X184260159Y-110719175D01*
X184163791Y-110836601D01*
X184146601Y-110853791D01*
X184029175Y-110950159D01*
X184008965Y-110963663D01*
X183874996Y-111035272D01*
X183852537Y-111044575D01*
X183707169Y-111088671D01*
X183683329Y-111093413D01*
X183567425Y-111104828D01*
X183526060Y-111108903D01*
X183513907Y-111109500D01*
X169326093Y-111109500D01*
X169313939Y-111108903D01*
X169156671Y-111093413D01*
X169132830Y-111088671D01*
X168987462Y-111044575D01*
X168965005Y-111035273D01*
X168831034Y-110963663D01*
X168810824Y-110950159D01*
X168693398Y-110853791D01*
X168676208Y-110836601D01*
X168579840Y-110719175D01*
X168566336Y-110698965D01*
X168494724Y-110564989D01*
X168485427Y-110542544D01*
X168441326Y-110397163D01*
X168436587Y-110373335D01*
X168421097Y-110216061D01*
X168420500Y-110203907D01*
X168420500Y-108523713D01*
X169539500Y-108523713D01*
X169539500Y-108736286D01*
X169572753Y-108946239D01*
X169638444Y-109148414D01*
X169734951Y-109337820D01*
X169859890Y-109509786D01*
X170010213Y-109660109D01*
X170182179Y-109785048D01*
X170182181Y-109785049D01*
X170182184Y-109785051D01*
X170371588Y-109881557D01*
X170573757Y-109947246D01*
X170783713Y-109980500D01*
X170783714Y-109980500D01*
X170996286Y-109980500D01*
X170996287Y-109980500D01*
X171206243Y-109947246D01*
X171408412Y-109881557D01*
X171597816Y-109785051D01*
X171619789Y-109769086D01*
X171769786Y-109660109D01*
X171769788Y-109660106D01*
X171769792Y-109660104D01*
X171920104Y-109509792D01*
X171920106Y-109509788D01*
X171920109Y-109509786D01*
X172045048Y-109337820D01*
X172045047Y-109337820D01*
X172045051Y-109337816D01*
X172141557Y-109148412D01*
X172207246Y-108946243D01*
X172240500Y-108736287D01*
X172240500Y-108523713D01*
X172207246Y-108313757D01*
X172141557Y-108111588D01*
X172045051Y-107922184D01*
X172045049Y-107922181D01*
X172045048Y-107922179D01*
X171920109Y-107750213D01*
X171769786Y-107599890D01*
X171597820Y-107474951D01*
X171408414Y-107378444D01*
X171408413Y-107378443D01*
X171408412Y-107378443D01*
X171206243Y-107312754D01*
X171206241Y-107312753D01*
X171206240Y-107312753D01*
X171044957Y-107287208D01*
X170996287Y-107279500D01*
X170783713Y-107279500D01*
X170735042Y-107287208D01*
X170573760Y-107312753D01*
X170371585Y-107378444D01*
X170182179Y-107474951D01*
X170010213Y-107599890D01*
X169859890Y-107750213D01*
X169734951Y-107922179D01*
X169638444Y-108111585D01*
X169572753Y-108313760D01*
X169539500Y-108523713D01*
X168420500Y-108523713D01*
X168420500Y-102812285D01*
X170745660Y-102812285D01*
X170745660Y-102985507D01*
X170772758Y-103156597D01*
X170826287Y-103321341D01*
X170904928Y-103475684D01*
X171006746Y-103615824D01*
X171129232Y-103738310D01*
X171269372Y-103840128D01*
X171423715Y-103918769D01*
X171588459Y-103972298D01*
X171759549Y-103999396D01*
X171759550Y-103999396D01*
X171904641Y-103999396D01*
X171971680Y-104019081D01*
X171992322Y-104035715D01*
X174110717Y-106154111D01*
X174110718Y-106154112D01*
X174225456Y-106230777D01*
X174352931Y-106283578D01*
X174352936Y-106283580D01*
X174352940Y-106283580D01*
X174352941Y-106283581D01*
X174488267Y-106310500D01*
X174488270Y-106310500D01*
X174488271Y-106310500D01*
X177045501Y-106310500D01*
X177112540Y-106330185D01*
X177158295Y-106382989D01*
X177169501Y-106434500D01*
X177169501Y-106907876D01*
X177175908Y-106967483D01*
X177226202Y-107102328D01*
X177226206Y-107102335D01*
X177312452Y-107217544D01*
X177312455Y-107217547D01*
X177427664Y-107303793D01*
X177427671Y-107303797D01*
X177562516Y-107354091D01*
X177623757Y-107360676D01*
X177625875Y-107361553D01*
X177628147Y-107361227D01*
X177658002Y-107374861D01*
X177688308Y-107387415D01*
X177689615Y-107389298D01*
X177691703Y-107390252D01*
X177709445Y-107417859D01*
X177728155Y-107444808D01*
X177728624Y-107447702D01*
X177729477Y-107449030D01*
X177734500Y-107483965D01*
X177734500Y-107508126D01*
X177714815Y-107575165D01*
X177698181Y-107595807D01*
X177637032Y-107656955D01*
X177637029Y-107656959D01*
X177548001Y-107801294D01*
X177547996Y-107801305D01*
X177494651Y-107962290D01*
X177484500Y-108061647D01*
X177484500Y-108658337D01*
X177484501Y-108658355D01*
X177494650Y-108757707D01*
X177494651Y-108757710D01*
X177547996Y-108918694D01*
X177548001Y-108918705D01*
X177637029Y-109063040D01*
X177637032Y-109063044D01*
X177756955Y-109182967D01*
X177756959Y-109182970D01*
X177901294Y-109271998D01*
X177901297Y-109271999D01*
X177901303Y-109272003D01*
X178062292Y-109325349D01*
X178161655Y-109335500D01*
X178708344Y-109335499D01*
X178708352Y-109335498D01*
X178708355Y-109335498D01*
X178762760Y-109329940D01*
X178807708Y-109325349D01*
X178968697Y-109272003D01*
X179113044Y-109182968D01*
X179232968Y-109063044D01*
X179322003Y-108918697D01*
X179375349Y-108757708D01*
X179385500Y-108658345D01*
X179385499Y-108061656D01*
X179375349Y-107962292D01*
X179322003Y-107801303D01*
X179321999Y-107801297D01*
X179321998Y-107801294D01*
X179232970Y-107656959D01*
X179232967Y-107656955D01*
X179171819Y-107595807D01*
X179157115Y-107568879D01*
X179140523Y-107543061D01*
X179139631Y-107536860D01*
X179138334Y-107534484D01*
X179135500Y-107508126D01*
X179135500Y-107480738D01*
X179155185Y-107413699D01*
X179207989Y-107367944D01*
X179246247Y-107357448D01*
X179277483Y-107354091D01*
X179412331Y-107303796D01*
X179527546Y-107217546D01*
X179613796Y-107102331D01*
X179664091Y-106967483D01*
X179670500Y-106907873D01*
X179670499Y-104312128D01*
X179664091Y-104252517D01*
X179613796Y-104117669D01*
X179613795Y-104117668D01*
X179613793Y-104117664D01*
X179527547Y-104002455D01*
X179527544Y-104002452D01*
X179412335Y-103916206D01*
X179412328Y-103916202D01*
X179277482Y-103865908D01*
X179277483Y-103865908D01*
X179217883Y-103859501D01*
X179217881Y-103859500D01*
X179217873Y-103859500D01*
X179217864Y-103859500D01*
X177622129Y-103859500D01*
X177622123Y-103859501D01*
X177562516Y-103865908D01*
X177427671Y-103916202D01*
X177427664Y-103916206D01*
X177312455Y-104002452D01*
X177312452Y-104002455D01*
X177226206Y-104117664D01*
X177226202Y-104117671D01*
X177175908Y-104252517D01*
X177172200Y-104287011D01*
X177169501Y-104312123D01*
X177169500Y-104312135D01*
X177169500Y-104785500D01*
X177149815Y-104852539D01*
X177097011Y-104898294D01*
X177045500Y-104909500D01*
X174898783Y-104909500D01*
X174831744Y-104889815D01*
X174811102Y-104873181D01*
X172982979Y-103045058D01*
X172949494Y-102983735D01*
X172946660Y-102957377D01*
X172946660Y-102812285D01*
X172919562Y-102641198D01*
X172919562Y-102641195D01*
X172866033Y-102476451D01*
X172787392Y-102322108D01*
X172685574Y-102181968D01*
X172563088Y-102059482D01*
X172422948Y-101957664D01*
X172268605Y-101879023D01*
X172103861Y-101825494D01*
X172103859Y-101825493D01*
X172103858Y-101825493D01*
X171972431Y-101804677D01*
X171932771Y-101798396D01*
X171759549Y-101798396D01*
X171719888Y-101804677D01*
X171588462Y-101825493D01*
X171423712Y-101879024D01*
X171269371Y-101957664D01*
X171189416Y-102015755D01*
X171129232Y-102059482D01*
X171129230Y-102059484D01*
X171129229Y-102059484D01*
X171006748Y-102181965D01*
X171006748Y-102181966D01*
X171006746Y-102181968D01*
X170963019Y-102242152D01*
X170904928Y-102322107D01*
X170826288Y-102476448D01*
X170772757Y-102641198D01*
X170768006Y-102671198D01*
X170745660Y-102812285D01*
X168420500Y-102812285D01*
X168420500Y-101708543D01*
X177419499Y-101708543D01*
X177457947Y-101901829D01*
X177457950Y-101901839D01*
X177533364Y-102083907D01*
X177533371Y-102083920D01*
X177642860Y-102247781D01*
X177642863Y-102247785D01*
X177782214Y-102387136D01*
X177782218Y-102387139D01*
X177946079Y-102496628D01*
X177946092Y-102496635D01*
X178090952Y-102556637D01*
X178128165Y-102572051D01*
X178128169Y-102572051D01*
X178128170Y-102572052D01*
X178321456Y-102610500D01*
X178321459Y-102610500D01*
X178518543Y-102610500D01*
X178648582Y-102584632D01*
X178711835Y-102572051D01*
X178893914Y-102496632D01*
X179057782Y-102387139D01*
X179197139Y-102247782D01*
X179306632Y-102083914D01*
X179382051Y-101901835D01*
X179420500Y-101708541D01*
X179420500Y-101511459D01*
X179420500Y-101511456D01*
X179382052Y-101318170D01*
X179382051Y-101318169D01*
X179382051Y-101318165D01*
X179382049Y-101318160D01*
X179306635Y-101136092D01*
X179306628Y-101136079D01*
X179197139Y-100972218D01*
X179197136Y-100972214D01*
X179057785Y-100832863D01*
X179057781Y-100832860D01*
X178893920Y-100723371D01*
X178893907Y-100723364D01*
X178711839Y-100647950D01*
X178711829Y-100647947D01*
X178518543Y-100609500D01*
X178518541Y-100609500D01*
X178321459Y-100609500D01*
X178321457Y-100609500D01*
X178128170Y-100647947D01*
X178128160Y-100647950D01*
X177946092Y-100723364D01*
X177946079Y-100723371D01*
X177782218Y-100832860D01*
X177782214Y-100832863D01*
X177642863Y-100972214D01*
X177642860Y-100972218D01*
X177533371Y-101136079D01*
X177533364Y-101136092D01*
X177457950Y-101318160D01*
X177457947Y-101318170D01*
X177419500Y-101511456D01*
X177419500Y-101511459D01*
X177419500Y-101708541D01*
X177419500Y-101708543D01*
X177419499Y-101708543D01*
X168420500Y-101708543D01*
X168420500Y-100293389D01*
X170709500Y-100293389D01*
X170709500Y-100466611D01*
X170736598Y-100637701D01*
X170790127Y-100802445D01*
X170868768Y-100956788D01*
X170970586Y-101096928D01*
X171093072Y-101219414D01*
X171233212Y-101321232D01*
X171387555Y-101399873D01*
X171552299Y-101453402D01*
X171723389Y-101480500D01*
X171723390Y-101480500D01*
X171896610Y-101480500D01*
X171896611Y-101480500D01*
X172067701Y-101453402D01*
X172232445Y-101399873D01*
X172242239Y-101394883D01*
X172242241Y-101394882D01*
X172272768Y-101379327D01*
X172386788Y-101321232D01*
X172526928Y-101219414D01*
X172649414Y-101096928D01*
X172751232Y-100956788D01*
X172829873Y-100802445D01*
X172883402Y-100637701D01*
X172910500Y-100466611D01*
X172910500Y-100311518D01*
X172930185Y-100244479D01*
X172946819Y-100223837D01*
X173889348Y-99281309D01*
X174833838Y-98336819D01*
X174895161Y-98303334D01*
X174921519Y-98300500D01*
X177045501Y-98300500D01*
X177112540Y-98320185D01*
X177158295Y-98372989D01*
X177169501Y-98424500D01*
X177169501Y-98907876D01*
X177175908Y-98967483D01*
X177226202Y-99102328D01*
X177226206Y-99102335D01*
X177312452Y-99217544D01*
X177312455Y-99217547D01*
X177427664Y-99303793D01*
X177427671Y-99303797D01*
X177562517Y-99354091D01*
X177562516Y-99354091D01*
X177569444Y-99354835D01*
X177622127Y-99360500D01*
X179217872Y-99360499D01*
X179277483Y-99354091D01*
X179412331Y-99303796D01*
X179527546Y-99217546D01*
X179613796Y-99102331D01*
X179664091Y-98967483D01*
X179670500Y-98907873D01*
X179670499Y-96312128D01*
X179664091Y-96252517D01*
X179613796Y-96117669D01*
X179613795Y-96117668D01*
X179613793Y-96117664D01*
X179527547Y-96002455D01*
X179527544Y-96002452D01*
X179412332Y-95916204D01*
X179277482Y-95865908D01*
X179277483Y-95865908D01*
X179217883Y-95859501D01*
X179217881Y-95859500D01*
X179217873Y-95859500D01*
X179217865Y-95859500D01*
X179079500Y-95859500D01*
X179070814Y-95856949D01*
X179061853Y-95858238D01*
X179037812Y-95847259D01*
X179012461Y-95839815D01*
X179006533Y-95832974D01*
X178998297Y-95829213D01*
X178987321Y-95812135D01*
X180919500Y-95812135D01*
X180919500Y-98407870D01*
X180919501Y-98407876D01*
X180925908Y-98467483D01*
X180976202Y-98602328D01*
X180976203Y-98602330D01*
X180993767Y-98625792D01*
X181018184Y-98691256D01*
X181018500Y-98700103D01*
X181018500Y-104519897D01*
X180998815Y-104586936D01*
X180993775Y-104594195D01*
X180976208Y-104617664D01*
X180976202Y-104617672D01*
X180925908Y-104752517D01*
X180919501Y-104812116D01*
X180919501Y-104812123D01*
X180919500Y-104812135D01*
X180919500Y-107407870D01*
X180919501Y-107407876D01*
X180925908Y-107467483D01*
X180976202Y-107602328D01*
X180976206Y-107602335D01*
X181062452Y-107717544D01*
X181062455Y-107717547D01*
X181177664Y-107803793D01*
X181177671Y-107803797D01*
X181312517Y-107854091D01*
X181312516Y-107854091D01*
X181319444Y-107854835D01*
X181372127Y-107860500D01*
X183467872Y-107860499D01*
X183527483Y-107854091D01*
X183662331Y-107803796D01*
X183777546Y-107717546D01*
X183863796Y-107602331D01*
X183914091Y-107467483D01*
X183920500Y-107407873D01*
X183920499Y-104812128D01*
X183914091Y-104752517D01*
X183863796Y-104617669D01*
X183863795Y-104617668D01*
X183863793Y-104617664D01*
X183777547Y-104502455D01*
X183777544Y-104502452D01*
X183662335Y-104416206D01*
X183662328Y-104416202D01*
X183527482Y-104365908D01*
X183527483Y-104365908D01*
X183467883Y-104359501D01*
X183467881Y-104359500D01*
X183467873Y-104359500D01*
X183467865Y-104359500D01*
X182543500Y-104359500D01*
X182476461Y-104339815D01*
X182430706Y-104287011D01*
X182419500Y-104235500D01*
X182419500Y-102671198D01*
X182439185Y-102604159D01*
X182491989Y-102558404D01*
X182561147Y-102548460D01*
X182590950Y-102556636D01*
X182628165Y-102572051D01*
X182628169Y-102572051D01*
X182628170Y-102572052D01*
X182821456Y-102610500D01*
X182821459Y-102610500D01*
X183018543Y-102610500D01*
X183148582Y-102584632D01*
X183211835Y-102572051D01*
X183393914Y-102496632D01*
X183557782Y-102387139D01*
X183697139Y-102247782D01*
X183806632Y-102083914D01*
X183882051Y-101901835D01*
X183920500Y-101708541D01*
X183920500Y-101511459D01*
X183920500Y-101511456D01*
X183882052Y-101318170D01*
X183882051Y-101318169D01*
X183882051Y-101318165D01*
X183882049Y-101318160D01*
X183806635Y-101136092D01*
X183806628Y-101136079D01*
X183697139Y-100972218D01*
X183697136Y-100972214D01*
X183557785Y-100832863D01*
X183557781Y-100832860D01*
X183393920Y-100723371D01*
X183393907Y-100723364D01*
X183211839Y-100647950D01*
X183211829Y-100647947D01*
X183018543Y-100609500D01*
X183018541Y-100609500D01*
X182821459Y-100609500D01*
X182821457Y-100609500D01*
X182628170Y-100647947D01*
X182628164Y-100647949D01*
X182590951Y-100663363D01*
X182521481Y-100670830D01*
X182459003Y-100639554D01*
X182423351Y-100579465D01*
X182419500Y-100548801D01*
X182419500Y-98984499D01*
X182439185Y-98917460D01*
X182491989Y-98871705D01*
X182543500Y-98860499D01*
X183467871Y-98860499D01*
X183467872Y-98860499D01*
X183527483Y-98854091D01*
X183662331Y-98803796D01*
X183777546Y-98717546D01*
X183863796Y-98602331D01*
X183914091Y-98467483D01*
X183920500Y-98407873D01*
X183920499Y-95812128D01*
X183914091Y-95752517D01*
X183911306Y-95745051D01*
X183863797Y-95617671D01*
X183863793Y-95617664D01*
X183777547Y-95502455D01*
X183777544Y-95502452D01*
X183662335Y-95416206D01*
X183662328Y-95416202D01*
X183527482Y-95365908D01*
X183527483Y-95365908D01*
X183467883Y-95359501D01*
X183467881Y-95359500D01*
X183467873Y-95359500D01*
X183467864Y-95359500D01*
X181372129Y-95359500D01*
X181372123Y-95359501D01*
X181312516Y-95365908D01*
X181177671Y-95416202D01*
X181177664Y-95416206D01*
X181062455Y-95502452D01*
X181062452Y-95502455D01*
X180976206Y-95617664D01*
X180976202Y-95617671D01*
X180925908Y-95752517D01*
X180919501Y-95812116D01*
X180919501Y-95812123D01*
X180919500Y-95812135D01*
X178987321Y-95812135D01*
X178984007Y-95806978D01*
X178966706Y-95787011D01*
X178964418Y-95776496D01*
X178960523Y-95770435D01*
X178955500Y-95735500D01*
X178955500Y-95721874D01*
X178975185Y-95654835D01*
X178991819Y-95634193D01*
X179008348Y-95617664D01*
X179052968Y-95573044D01*
X179142003Y-95428697D01*
X179195349Y-95267708D01*
X179205500Y-95168345D01*
X179205499Y-94571656D01*
X179195349Y-94472292D01*
X179142003Y-94311303D01*
X179141999Y-94311297D01*
X179141998Y-94311294D01*
X179052970Y-94166959D01*
X179052967Y-94166955D01*
X178933044Y-94047032D01*
X178933040Y-94047029D01*
X178788705Y-93958001D01*
X178788699Y-93957998D01*
X178788697Y-93957997D01*
X178788694Y-93957996D01*
X178627709Y-93904651D01*
X178528346Y-93894500D01*
X177981662Y-93894500D01*
X177981644Y-93894501D01*
X177882292Y-93904650D01*
X177882289Y-93904651D01*
X177721305Y-93957996D01*
X177721294Y-93958001D01*
X177576959Y-94047029D01*
X177576955Y-94047032D01*
X177457032Y-94166955D01*
X177457029Y-94166959D01*
X177368001Y-94311294D01*
X177367996Y-94311305D01*
X177314651Y-94472290D01*
X177304500Y-94571647D01*
X177304500Y-95168337D01*
X177304501Y-95168355D01*
X177314650Y-95267707D01*
X177314651Y-95267710D01*
X177367996Y-95428694D01*
X177368001Y-95428705D01*
X177457029Y-95573040D01*
X177457032Y-95573044D01*
X177518181Y-95634193D01*
X177532884Y-95661120D01*
X177549477Y-95686939D01*
X177550368Y-95693139D01*
X177551666Y-95695516D01*
X177554500Y-95721874D01*
X177554500Y-95782803D01*
X177534815Y-95849842D01*
X177482011Y-95895597D01*
X177473834Y-95898985D01*
X177427670Y-95916203D01*
X177427664Y-95916206D01*
X177312455Y-96002452D01*
X177312452Y-96002455D01*
X177226206Y-96117664D01*
X177226202Y-96117671D01*
X177175908Y-96252517D01*
X177169501Y-96312116D01*
X177169501Y-96312123D01*
X177169500Y-96312135D01*
X177169500Y-96775500D01*
X177149815Y-96842539D01*
X177097011Y-96888294D01*
X177045500Y-96899500D01*
X174511004Y-96899500D01*
X174375677Y-96926418D01*
X174375667Y-96926421D01*
X174248192Y-96979222D01*
X174133454Y-97055887D01*
X174133453Y-97055888D01*
X171946161Y-99243181D01*
X171884838Y-99276666D01*
X171858480Y-99279500D01*
X171723389Y-99279500D01*
X171683728Y-99285781D01*
X171552302Y-99306597D01*
X171387552Y-99360128D01*
X171233211Y-99438768D01*
X171153256Y-99496859D01*
X171093072Y-99540586D01*
X171093070Y-99540588D01*
X171093069Y-99540588D01*
X170970588Y-99663069D01*
X170970588Y-99663070D01*
X170970586Y-99663072D01*
X170926859Y-99723256D01*
X170868768Y-99803211D01*
X170790128Y-99957552D01*
X170736597Y-100122302D01*
X170714044Y-100264700D01*
X170709500Y-100293389D01*
X168420500Y-100293389D01*
X168420500Y-94483713D01*
X169539500Y-94483713D01*
X169539500Y-94696286D01*
X169572753Y-94906239D01*
X169638444Y-95108414D01*
X169734951Y-95297820D01*
X169859890Y-95469786D01*
X170010213Y-95620109D01*
X170182179Y-95745048D01*
X170182181Y-95745049D01*
X170182184Y-95745051D01*
X170371588Y-95841557D01*
X170573757Y-95907246D01*
X170783713Y-95940500D01*
X170783714Y-95940500D01*
X170996286Y-95940500D01*
X170996287Y-95940500D01*
X171206243Y-95907246D01*
X171408412Y-95841557D01*
X171597816Y-95745051D01*
X171665996Y-95695516D01*
X171769786Y-95620109D01*
X171769788Y-95620106D01*
X171769792Y-95620104D01*
X171920104Y-95469792D01*
X171920106Y-95469788D01*
X171920109Y-95469786D01*
X172045048Y-95297820D01*
X172045047Y-95297820D01*
X172045051Y-95297816D01*
X172141557Y-95108412D01*
X172207246Y-94906243D01*
X172240500Y-94696287D01*
X172240500Y-94483713D01*
X172207246Y-94273757D01*
X172141557Y-94071588D01*
X172045051Y-93882184D01*
X172045049Y-93882181D01*
X172045048Y-93882179D01*
X171920109Y-93710213D01*
X171769786Y-93559890D01*
X171597820Y-93434951D01*
X171408414Y-93338444D01*
X171408413Y-93338443D01*
X171408412Y-93338443D01*
X171206243Y-93272754D01*
X171206241Y-93272753D01*
X171206240Y-93272753D01*
X171044957Y-93247208D01*
X170996287Y-93239500D01*
X170783713Y-93239500D01*
X170735042Y-93247208D01*
X170573760Y-93272753D01*
X170371585Y-93338444D01*
X170182179Y-93434951D01*
X170010213Y-93559890D01*
X169859890Y-93710213D01*
X169734951Y-93882179D01*
X169638444Y-94071585D01*
X169572753Y-94273760D01*
X169539500Y-94483713D01*
X168420500Y-94483713D01*
X168420500Y-93016092D01*
X168421097Y-93003938D01*
X168426990Y-92944108D01*
X168436587Y-92846660D01*
X168441326Y-92822838D01*
X168485428Y-92677451D01*
X168494722Y-92655014D01*
X168566340Y-92521027D01*
X168579835Y-92500830D01*
X168676213Y-92383392D01*
X168693392Y-92366213D01*
X168810830Y-92269835D01*
X168831027Y-92256340D01*
X168965014Y-92184722D01*
X168987451Y-92175428D01*
X169132838Y-92131326D01*
X169156662Y-92126587D01*
X169313939Y-92111097D01*
X169326093Y-92110500D01*
X169385892Y-92110500D01*
X183454108Y-92110500D01*
X183513907Y-92110500D01*
X183526061Y-92111097D01*
G37*
%TD.AperFunction*%
%TD*%
M02*
