%TF.GenerationSoftware,KiCad,Pcbnew,9.0.7*%
%TF.CreationDate,2026-02-02T16:04:07+02:00*%
%TF.ProjectId,gammapi-zero-audio,67616d6d-6170-4692-9d7a-65726f2d6175,rev?*%
%TF.SameCoordinates,Original*%
%TF.FileFunction,Copper,L2,Bot*%
%TF.FilePolarity,Positive*%
%FSLAX46Y46*%
G04 Gerber Fmt 4.6, Leading zero omitted, Abs format (unit mm)*
G04 Created by KiCad (PCBNEW 9.0.7) date 2026-02-02 16:04:07*
%MOMM*%
%LPD*%
G01*
G04 APERTURE LIST*
G04 Aperture macros list*
%AMRoundRect*
0 Rectangle with rounded corners*
0 $1 Rounding radius*
0 $2 $3 $4 $5 $6 $7 $8 $9 X,Y pos of 4 corners*
0 Add a 4 corners polygon primitive as box body*
4,1,4,$2,$3,$4,$5,$6,$7,$8,$9,$2,$3,0*
0 Add four circle primitives for the rounded corners*
1,1,$1+$1,$2,$3*
1,1,$1+$1,$4,$5*
1,1,$1+$1,$6,$7*
1,1,$1+$1,$8,$9*
0 Add four rect primitives between the rounded corners*
20,1,$1+$1,$2,$3,$4,$5,0*
20,1,$1+$1,$4,$5,$6,$7,0*
20,1,$1+$1,$6,$7,$8,$9,0*
20,1,$1+$1,$8,$9,$2,$3,0*%
G04 Aperture macros list end*
%TA.AperFunction,SMDPad,CuDef*%
%ADD10R,0.850000X0.600000*%
%TD*%
%TA.AperFunction,SMDPad,CuDef*%
%ADD11R,1.100000X0.750000*%
%TD*%
%TA.AperFunction,ConnectorPad*%
%ADD12RoundRect,0.066750X0.859500X0.155750X-0.859500X0.155750X-0.859500X-0.155750X0.859500X-0.155750X0*%
%TD*%
%TA.AperFunction,ConnectorPad*%
%ADD13RoundRect,0.066750X-0.859500X-0.155750X0.859500X-0.155750X0.859500X0.155750X-0.859500X0.155750X0*%
%TD*%
%TA.AperFunction,ViaPad*%
%ADD14C,1.200000*%
%TD*%
%TA.AperFunction,Conductor*%
%ADD15C,0.400000*%
%TD*%
G04 APERTURE END LIST*
D10*
%TO.P,J4,1,1*%
%TO.N,GND2*%
X173040000Y-99820000D03*
%TO.P,J4,2,2*%
%TO.N,Net-(C1-Pad1)*%
X173040000Y-101020000D03*
%TO.P,J4,3,3*%
%TO.N,Net-(C2-Pad1)*%
X173040000Y-102220000D03*
%TO.P,J4,4,4*%
%TO.N,+3V30*%
X173040000Y-103420000D03*
D11*
%TO.P,J4,MP1,MP1*%
%TO.N,GND2*%
X169415000Y-98620000D03*
%TO.P,J4,MP2,MP2*%
X169415000Y-104620000D03*
%TD*%
D12*
%TO.P,J3,1,1*%
%TO.N,GND1*%
X159350000Y-99320000D03*
%TO.P,J3,2,2*%
%TO.N,/CH_B*%
X159350000Y-100210000D03*
%TO.P,J3,3,3*%
%TO.N,/CH_A*%
X159350000Y-101110000D03*
%TO.P,J3,4,4*%
%TO.N,+3V3*%
X159350000Y-102010000D03*
%TD*%
D13*
%TO.P,J2,1,1*%
%TO.N,+3V3*%
X109380000Y-102020000D03*
%TO.P,J2,2,2*%
%TO.N,/CH_A*%
X109380000Y-101130000D03*
%TO.P,J2,3,3*%
%TO.N,/CH_B*%
X109380000Y-100230000D03*
%TO.P,J2,4,4*%
%TO.N,GND1*%
X109380000Y-99330000D03*
%TD*%
D14*
%TO.N,Net-(C1-Pad1)*%
X171810000Y-100380000D03*
%TO.N,Net-(C2-Pad1)*%
X171846160Y-102898896D03*
%TO.N,GND2*%
X176220000Y-103470000D03*
X176220000Y-99740000D03*
%TD*%
D15*
%TO.N,+3V3*%
X149610000Y-102017750D02*
X159342250Y-102017750D01*
X149607750Y-102020000D02*
X109380000Y-102020000D01*
X149610000Y-102017750D02*
X149607750Y-102020000D01*
X159342250Y-102017750D02*
X159350000Y-102010000D01*
%TO.N,Net-(C1-Pad1)*%
X172450000Y-101020000D02*
X173040000Y-101020000D01*
X171810000Y-100380000D02*
X172450000Y-101020000D01*
%TO.N,Net-(C2-Pad1)*%
X172525056Y-102220000D02*
X173040000Y-102220000D01*
X171846160Y-102898896D02*
X172525056Y-102220000D01*
%TO.N,GND1*%
X149610000Y-99327750D02*
X159342250Y-99327750D01*
X149607750Y-99330000D02*
X109380000Y-99330000D01*
X159342250Y-99327750D02*
X159350000Y-99320000D01*
X149610000Y-99327750D02*
X149607750Y-99330000D01*
%TO.N,/CH_A*%
X149610000Y-101127750D02*
X149607750Y-101130000D01*
X149610000Y-101127750D02*
X159332250Y-101127750D01*
X149607750Y-101130000D02*
X109380000Y-101130000D01*
X159332250Y-101127750D02*
X159350000Y-101110000D01*
%TO.N,/CH_B*%
X149610000Y-100227750D02*
X159332250Y-100227750D01*
X159332250Y-100227750D02*
X159350000Y-100210000D01*
X149610000Y-100227750D02*
X149607750Y-100230000D01*
X149607750Y-100230000D02*
X109380000Y-100230000D01*
%TD*%
%TA.AperFunction,Conductor*%
%TO.N,GND2*%
G36*
X183526061Y-92111097D02*
G01*
X183683335Y-92126587D01*
X183707163Y-92131326D01*
X183852544Y-92175427D01*
X183874989Y-92184724D01*
X184008967Y-92256337D01*
X184029175Y-92269840D01*
X184146601Y-92366208D01*
X184163791Y-92383398D01*
X184260159Y-92500824D01*
X184273663Y-92521034D01*
X184345272Y-92655003D01*
X184354575Y-92677462D01*
X184398671Y-92822830D01*
X184403413Y-92846670D01*
X184418903Y-93003937D01*
X184419500Y-93016092D01*
X184419500Y-110203907D01*
X184418903Y-110216061D01*
X184418903Y-110216062D01*
X184403413Y-110373329D01*
X184398671Y-110397169D01*
X184354575Y-110542537D01*
X184345272Y-110564996D01*
X184273663Y-110698965D01*
X184260159Y-110719175D01*
X184163791Y-110836601D01*
X184146601Y-110853791D01*
X184029175Y-110950159D01*
X184008965Y-110963663D01*
X183874996Y-111035272D01*
X183852537Y-111044575D01*
X183707169Y-111088671D01*
X183683329Y-111093413D01*
X183567425Y-111104828D01*
X183526060Y-111108903D01*
X183513907Y-111109500D01*
X169326093Y-111109500D01*
X169313939Y-111108903D01*
X169156671Y-111093413D01*
X169132830Y-111088671D01*
X168987462Y-111044575D01*
X168965005Y-111035273D01*
X168831034Y-110963663D01*
X168810824Y-110950159D01*
X168693398Y-110853791D01*
X168676208Y-110836601D01*
X168579840Y-110719175D01*
X168566336Y-110698965D01*
X168494724Y-110564989D01*
X168485427Y-110542544D01*
X168441326Y-110397163D01*
X168436587Y-110373335D01*
X168421097Y-110216061D01*
X168420500Y-110203907D01*
X168420500Y-108523713D01*
X169539500Y-108523713D01*
X169539500Y-108736286D01*
X169572753Y-108946239D01*
X169638444Y-109148414D01*
X169734951Y-109337820D01*
X169859890Y-109509786D01*
X170010213Y-109660109D01*
X170182179Y-109785048D01*
X170182181Y-109785049D01*
X170182184Y-109785051D01*
X170371588Y-109881557D01*
X170573757Y-109947246D01*
X170783713Y-109980500D01*
X170783714Y-109980500D01*
X170996286Y-109980500D01*
X170996287Y-109980500D01*
X171206243Y-109947246D01*
X171408412Y-109881557D01*
X171597816Y-109785051D01*
X171619789Y-109769086D01*
X171769786Y-109660109D01*
X171769788Y-109660106D01*
X171769792Y-109660104D01*
X171920104Y-109509792D01*
X171920106Y-109509788D01*
X171920109Y-109509786D01*
X172045048Y-109337820D01*
X172045047Y-109337820D01*
X172045051Y-109337816D01*
X172141557Y-109148412D01*
X172207246Y-108946243D01*
X172240500Y-108736287D01*
X172240500Y-108523713D01*
X172207246Y-108313757D01*
X172141557Y-108111588D01*
X172045051Y-107922184D01*
X172045049Y-107922181D01*
X172045048Y-107922179D01*
X171920109Y-107750213D01*
X171769786Y-107599890D01*
X171597820Y-107474951D01*
X171408414Y-107378444D01*
X171408413Y-107378443D01*
X171408412Y-107378443D01*
X171206243Y-107312754D01*
X171206241Y-107312753D01*
X171206240Y-107312753D01*
X171044957Y-107287208D01*
X170996287Y-107279500D01*
X170783713Y-107279500D01*
X170735042Y-107287208D01*
X170573760Y-107312753D01*
X170371585Y-107378444D01*
X170182179Y-107474951D01*
X170010213Y-107599890D01*
X169859890Y-107750213D01*
X169734951Y-107922179D01*
X169638444Y-108111585D01*
X169572753Y-108313760D01*
X169539500Y-108523713D01*
X168420500Y-108523713D01*
X168420500Y-100293389D01*
X170709500Y-100293389D01*
X170709500Y-100466611D01*
X170736598Y-100637701D01*
X170790127Y-100802445D01*
X170868768Y-100956788D01*
X170970586Y-101096928D01*
X171093072Y-101219414D01*
X171233212Y-101321232D01*
X171387555Y-101399873D01*
X171552299Y-101453402D01*
X171723389Y-101480500D01*
X171723390Y-101480500D01*
X171868481Y-101480500D01*
X171897769Y-101489100D01*
X171927620Y-101495511D01*
X171932817Y-101499391D01*
X171935520Y-101500185D01*
X171955930Y-101516588D01*
X171956119Y-101516776D01*
X172003457Y-101564114D01*
X172004220Y-101564624D01*
X172009097Y-101569475D01*
X172023174Y-101595094D01*
X172039642Y-101619263D01*
X172039806Y-101625362D01*
X172042744Y-101630709D01*
X172040735Y-101659879D01*
X172041522Y-101689108D01*
X172038341Y-101694635D01*
X172037944Y-101700414D01*
X172025068Y-101717708D01*
X172009329Y-101745068D01*
X171992320Y-101762077D01*
X171930997Y-101795562D01*
X171904639Y-101798396D01*
X171759549Y-101798396D01*
X171739497Y-101801572D01*
X171588462Y-101825493D01*
X171588459Y-101825494D01*
X171444936Y-101872128D01*
X171423712Y-101879024D01*
X171269371Y-101957664D01*
X171189416Y-102015755D01*
X171129232Y-102059482D01*
X171129230Y-102059484D01*
X171129229Y-102059484D01*
X171006748Y-102181965D01*
X171006748Y-102181966D01*
X171006746Y-102181968D01*
X170963019Y-102242152D01*
X170904928Y-102322107D01*
X170826288Y-102476448D01*
X170772757Y-102641198D01*
X170745660Y-102812285D01*
X170745660Y-102985506D01*
X170759379Y-103072129D01*
X170772758Y-103156597D01*
X170826287Y-103321341D01*
X170904928Y-103475684D01*
X171006746Y-103615824D01*
X171129232Y-103738310D01*
X171269372Y-103840128D01*
X171423715Y-103918769D01*
X171588459Y-103972298D01*
X171759549Y-103999396D01*
X171759550Y-103999396D01*
X171932770Y-103999396D01*
X171932771Y-103999396D01*
X172096883Y-103973403D01*
X172166175Y-103982358D01*
X172215546Y-104021565D01*
X172257452Y-104077544D01*
X172257455Y-104077547D01*
X172372664Y-104163793D01*
X172372671Y-104163797D01*
X172507517Y-104214091D01*
X172507516Y-104214091D01*
X172514444Y-104214835D01*
X172567127Y-104220500D01*
X173512872Y-104220499D01*
X173572483Y-104214091D01*
X173707331Y-104163796D01*
X173822546Y-104077546D01*
X173908796Y-103962331D01*
X173959091Y-103827483D01*
X173965500Y-103767873D01*
X173965499Y-103072128D01*
X173959091Y-103012517D01*
X173908796Y-102877669D01*
X173908794Y-102877666D01*
X173905696Y-102869360D01*
X173907426Y-102868714D01*
X173894902Y-102811163D01*
X173906691Y-102771011D01*
X173905696Y-102770640D01*
X173908794Y-102762333D01*
X173908796Y-102762331D01*
X173959091Y-102627483D01*
X173965500Y-102567873D01*
X173965499Y-101872128D01*
X173959091Y-101812517D01*
X173920311Y-101708543D01*
X177419499Y-101708543D01*
X177457947Y-101901829D01*
X177457950Y-101901839D01*
X177533364Y-102083907D01*
X177533371Y-102083920D01*
X177642860Y-102247781D01*
X177642863Y-102247785D01*
X177782214Y-102387136D01*
X177782218Y-102387139D01*
X177946079Y-102496628D01*
X177946092Y-102496635D01*
X178118078Y-102567873D01*
X178128165Y-102572051D01*
X178128169Y-102572051D01*
X178128170Y-102572052D01*
X178321456Y-102610500D01*
X178321459Y-102610500D01*
X178518543Y-102610500D01*
X178648582Y-102584632D01*
X178711835Y-102572051D01*
X178893914Y-102496632D01*
X179057782Y-102387139D01*
X179197139Y-102247782D01*
X179306632Y-102083914D01*
X179382051Y-101901835D01*
X179397237Y-101825493D01*
X179420500Y-101708543D01*
X181919499Y-101708543D01*
X181957947Y-101901829D01*
X181957950Y-101901839D01*
X182033364Y-102083907D01*
X182033371Y-102083920D01*
X182142860Y-102247781D01*
X182142863Y-102247785D01*
X182282214Y-102387136D01*
X182282218Y-102387139D01*
X182446079Y-102496628D01*
X182446092Y-102496635D01*
X182618078Y-102567873D01*
X182628165Y-102572051D01*
X182628169Y-102572051D01*
X182628170Y-102572052D01*
X182821456Y-102610500D01*
X182821459Y-102610500D01*
X183018543Y-102610500D01*
X183148582Y-102584632D01*
X183211835Y-102572051D01*
X183393914Y-102496632D01*
X183557782Y-102387139D01*
X183697139Y-102247782D01*
X183806632Y-102083914D01*
X183882051Y-101901835D01*
X183897237Y-101825493D01*
X183920500Y-101708543D01*
X183920500Y-101511456D01*
X183882052Y-101318170D01*
X183882051Y-101318169D01*
X183882051Y-101318165D01*
X183882049Y-101318160D01*
X183806635Y-101136092D01*
X183806628Y-101136079D01*
X183697139Y-100972218D01*
X183697136Y-100972214D01*
X183557785Y-100832863D01*
X183557781Y-100832860D01*
X183393920Y-100723371D01*
X183393907Y-100723364D01*
X183211839Y-100647950D01*
X183211829Y-100647947D01*
X183018543Y-100609500D01*
X183018541Y-100609500D01*
X182821459Y-100609500D01*
X182821457Y-100609500D01*
X182628170Y-100647947D01*
X182628160Y-100647950D01*
X182446092Y-100723364D01*
X182446079Y-100723371D01*
X182282218Y-100832860D01*
X182282214Y-100832863D01*
X182142863Y-100972214D01*
X182142860Y-100972218D01*
X182033371Y-101136079D01*
X182033364Y-101136092D01*
X181957950Y-101318160D01*
X181957947Y-101318170D01*
X181919500Y-101511456D01*
X181919500Y-101511459D01*
X181919500Y-101708541D01*
X181919500Y-101708543D01*
X181919499Y-101708543D01*
X179420500Y-101708543D01*
X179420500Y-101511456D01*
X179382052Y-101318170D01*
X179382051Y-101318169D01*
X179382051Y-101318165D01*
X179382049Y-101318160D01*
X179306635Y-101136092D01*
X179306628Y-101136079D01*
X179197139Y-100972218D01*
X179197136Y-100972214D01*
X179057785Y-100832863D01*
X179057781Y-100832860D01*
X178893920Y-100723371D01*
X178893907Y-100723364D01*
X178711839Y-100647950D01*
X178711829Y-100647947D01*
X178518543Y-100609500D01*
X178518541Y-100609500D01*
X178321459Y-100609500D01*
X178321457Y-100609500D01*
X178128170Y-100647947D01*
X178128160Y-100647950D01*
X177946092Y-100723364D01*
X177946079Y-100723371D01*
X177782218Y-100832860D01*
X177782214Y-100832863D01*
X177642863Y-100972214D01*
X177642860Y-100972218D01*
X177533371Y-101136079D01*
X177533364Y-101136092D01*
X177457950Y-101318160D01*
X177457947Y-101318170D01*
X177419500Y-101511456D01*
X177419500Y-101511459D01*
X177419500Y-101708541D01*
X177419500Y-101708543D01*
X177419499Y-101708543D01*
X173920311Y-101708543D01*
X173908796Y-101677669D01*
X173908794Y-101677666D01*
X173905696Y-101669360D01*
X173907240Y-101668784D01*
X173902232Y-101644849D01*
X173894902Y-101611163D01*
X173895047Y-101610506D01*
X173894977Y-101610169D01*
X173895544Y-101608264D01*
X173902754Y-101575743D01*
X173906921Y-101564834D01*
X173908796Y-101562331D01*
X173959091Y-101427483D01*
X173965500Y-101367873D01*
X173965499Y-100672128D01*
X173959091Y-100612517D01*
X173908796Y-100477669D01*
X173908795Y-100477668D01*
X173908793Y-100477664D01*
X173822547Y-100362455D01*
X173822544Y-100362452D01*
X173707335Y-100276206D01*
X173707328Y-100276202D01*
X173572482Y-100225908D01*
X173572483Y-100225908D01*
X173512883Y-100219501D01*
X173512881Y-100219500D01*
X173512873Y-100219500D01*
X173512865Y-100219500D01*
X173004491Y-100219500D01*
X172937452Y-100199815D01*
X172891697Y-100147011D01*
X172883916Y-100124444D01*
X172883404Y-100122315D01*
X172883402Y-100122299D01*
X172829873Y-99957555D01*
X172751232Y-99803212D01*
X172649414Y-99663072D01*
X172526928Y-99540586D01*
X172386788Y-99438768D01*
X172232445Y-99360127D01*
X172067701Y-99306598D01*
X172067699Y-99306597D01*
X172067698Y-99306597D01*
X171936271Y-99285781D01*
X171896611Y-99279500D01*
X171723389Y-99279500D01*
X171683728Y-99285781D01*
X171552302Y-99306597D01*
X171387552Y-99360128D01*
X171233211Y-99438768D01*
X171153256Y-99496859D01*
X171093072Y-99540586D01*
X171093070Y-99540588D01*
X171093069Y-99540588D01*
X170970588Y-99663069D01*
X170970588Y-99663070D01*
X170970586Y-99663072D01*
X170926859Y-99723256D01*
X170868768Y-99803211D01*
X170790128Y-99957552D01*
X170736597Y-100122302D01*
X170709500Y-100293389D01*
X168420500Y-100293389D01*
X168420500Y-94483713D01*
X169539500Y-94483713D01*
X169539500Y-94696286D01*
X169572753Y-94906239D01*
X169638444Y-95108414D01*
X169734951Y-95297820D01*
X169859890Y-95469786D01*
X170010213Y-95620109D01*
X170182179Y-95745048D01*
X170182181Y-95745049D01*
X170182184Y-95745051D01*
X170371588Y-95841557D01*
X170573757Y-95907246D01*
X170783713Y-95940500D01*
X170783714Y-95940500D01*
X170996286Y-95940500D01*
X170996287Y-95940500D01*
X171206243Y-95907246D01*
X171408412Y-95841557D01*
X171597816Y-95745051D01*
X171619789Y-95729086D01*
X171769786Y-95620109D01*
X171769788Y-95620106D01*
X171769792Y-95620104D01*
X171920104Y-95469792D01*
X171920106Y-95469788D01*
X171920109Y-95469786D01*
X172045048Y-95297820D01*
X172045047Y-95297820D01*
X172045051Y-95297816D01*
X172141557Y-95108412D01*
X172207246Y-94906243D01*
X172240500Y-94696287D01*
X172240500Y-94483713D01*
X172207246Y-94273757D01*
X172141557Y-94071588D01*
X172045051Y-93882184D01*
X172045049Y-93882181D01*
X172045048Y-93882179D01*
X171920109Y-93710213D01*
X171769786Y-93559890D01*
X171597820Y-93434951D01*
X171408414Y-93338444D01*
X171408413Y-93338443D01*
X171408412Y-93338443D01*
X171206243Y-93272754D01*
X171206241Y-93272753D01*
X171206240Y-93272753D01*
X171044957Y-93247208D01*
X170996287Y-93239500D01*
X170783713Y-93239500D01*
X170735042Y-93247208D01*
X170573760Y-93272753D01*
X170371585Y-93338444D01*
X170182179Y-93434951D01*
X170010213Y-93559890D01*
X169859890Y-93710213D01*
X169734951Y-93882179D01*
X169638444Y-94071585D01*
X169572753Y-94273760D01*
X169539500Y-94483713D01*
X168420500Y-94483713D01*
X168420500Y-93016092D01*
X168421097Y-93003938D01*
X168426990Y-92944108D01*
X168436587Y-92846660D01*
X168441326Y-92822838D01*
X168485428Y-92677451D01*
X168494722Y-92655014D01*
X168566340Y-92521027D01*
X168579835Y-92500830D01*
X168676213Y-92383392D01*
X168693392Y-92366213D01*
X168810830Y-92269835D01*
X168831027Y-92256340D01*
X168965014Y-92184722D01*
X168987451Y-92175428D01*
X169132838Y-92131326D01*
X169156662Y-92126587D01*
X169313939Y-92111097D01*
X169326093Y-92110500D01*
X169385892Y-92110500D01*
X183454108Y-92110500D01*
X183513907Y-92110500D01*
X183526061Y-92111097D01*
G37*
%TD.AperFunction*%
%TD*%
M02*
